<svg version="1.1" id="Layer_1" xmlns="http://www.w3.org/2000/svg" xmlns:xlink="http://www.w3.org/1999/xlink" x="0px" y="0px"
	 width="100%" viewBox="130 90 620 570" enable-background="new 0 0 990 806" xml:space="preserve">
M440.841400,520.658264 
	C419.751678,499.561646 398.709839,478.416656 377.515778,457.425385 
	C374.646149,454.583221 374.190430,452.714294 377.328461,449.783356 
	C383.533661,443.987732 389.636292,438.049225 395.363068,431.787292 
	C398.639313,428.204956 400.638580,428.823273 403.737030,431.965240 
	C422.804230,451.300415 442.088043,470.421722 461.212769,489.700500 
	C467.501617,496.040009 473.531311,502.636597 479.451874,508.875702 
	C515.534668,472.924774 550.604004,437.983643 585.900269,402.816406 
	C584.993042,401.790192 584.187195,400.775208 583.277344,399.864136 
	C539.492676,356.022766 495.706238,312.183197 451.902252,268.361176 
	C438.007538,254.460754 424.051849,240.621323 410.148499,226.729507 
	C405.679291,222.264053 405.740875,221.473801 410.147614,217.112869 
	C415.119995,212.192139 420.218140,207.380798 424.921875,202.212738 
	C427.888031,198.953857 430.019623,199.657333 432.710510,202.366928 
	C454.982513,224.793457 477.291809,247.183075 499.629150,269.544556 
	C534.906738,304.860229 570.252686,340.107880 605.449219,375.504059 
	C608.807556,378.881470 610.891907,378.905701 614.244690,375.481262 
	C628.691467,360.725647 643.404785,346.231079 658.007568,331.627960 
	C663.732422,325.902954 669.421875,320.142517 674.521118,315.008636 
	C661.059692,301.337463 648.096252,288.171997 634.364075,274.225800 
	C627.569641,281.322174 620.623718,288.267242 614.064026,295.559723 
	C610.823120,299.162689 608.623230,298.509918 605.574524,295.420105 
	C589.904907,279.539307 574.135864,263.755615 558.283203,248.057465 
	C555.446411,245.248291 555.014221,243.119690 558.065613,240.191254 
	C564.315063,234.193588 570.220703,227.835831 576.512207,221.884583 
	C579.179993,219.361130 579.325317,217.460739 576.765320,214.931778 
	C565.635742,203.937195 554.505249,192.941772 543.523132,181.800659 
	C540.562439,178.797089 538.483826,179.214691 535.755676,182.070572 
	C529.778503,188.327744 523.421692,194.223343 517.471924,200.505264 
	C514.819641,203.305649 513.111938,202.930206 510.593262,200.365707 
	C498.227509,187.774979 485.824066,175.215698 473.167084,162.919983 
	C469.503448,159.360901 469.580719,157.173309 473.339478,153.806427 
	C480.605774,147.297668 487.448303,140.315918 495.133667,132.885193 
	C481.772064,119.764969 469.190308,107.432869 456.640350,95.068504 
	C454.113770,92.579277 452.488983,94.443001 450.809326,96.125031 
	C443.282928,103.662216 435.786774,111.229637 428.252228,118.758629 
	C395.268005,151.718506 362.325928,184.720978 329.203644,217.541580 
	C325.899445,220.815659 325.930359,222.671600 329.128906,225.829712 
	C347.722473,244.187988 366.148468,262.715973 384.624023,281.193695 
	C404.756805,301.328796 424.880646,321.472809 445.010559,341.610779 
	C464.324280,360.932220 483.600220,380.291840 503.003784,399.522644 
	C505.641418,402.136780 505.730133,403.920898 503.054718,406.482758 
	C497.163300,412.124023 491.487854,417.990936 485.728912,423.770416 
	C480.817719,428.699097 480.790222,428.732330 475.965057,423.909393 
	C418.341370,366.312347 360.710510,308.722443 303.164246,251.048126 
	C300.487579,248.365540 298.929138,247.902512 296.010376,250.840805 
	C265.850861,281.202362 235.542450,311.415955 205.292053,341.687286 
	C201.449615,345.532379 197.702057,349.472290 193.759445,353.523499 
	C195.338394,355.235626 196.409042,356.481049 197.566757,357.639435 
	C223.837479,383.925903 250.117310,410.203247 276.396332,436.481415 
	C307.741943,467.825958 339.084839,499.173248 370.441925,530.506348 
	C372.615204,532.677979 375.148193,534.553284 371.757416,537.841064 
	C365.539551,543.870117 359.309540,549.903564 353.412476,556.240234 
	C349.834991,560.084473 347.459076,559.201843 344.124512,555.848999 
	C305.352661,516.864380 266.463318,477.996582 227.594589,439.108337 
	C208.867340,420.371674 190.103043,401.671997 171.398376,382.912842 
	C169.191513,380.699585 167.550415,379.135101 164.538193,382.246338 
	C153.769043,393.369446 142.872391,404.377838 131.735855,415.131256 
	C128.377716,418.373871 128.414307,420.344696 131.684891,423.523926 
	C143.861664,435.360321 155.835785,447.406189 167.827957,459.431274 
	C196.154053,487.835083 224.431549,516.287292 252.758224,544.690491 
	C273.446869,565.434998 294.182159,586.133057 314.897308,606.851196 
	C325.020233,616.975525 335.136475,627.106628 345.276093,637.214233 
	C347.095306,639.027771 348.959259,640.869995 351.562439,638.204529 
	C354.234955,635.467957 356.987915,632.810059 359.682617,630.094849 
	C374.099274,615.568542 388.475433,601.001831 402.929443,586.512817 
	C419.266907,570.135864 435.647339,553.801392 452.077515,537.517578 
	C454.266449,535.348083 454.139221,533.777893 451.968628,531.740356 
	C448.325409,528.320435 444.874084,524.696106 440.841400,520.658264 
M469.577057,652.867126 
	C470.073547,649.671997 470.921021,646.485291 470.998260,643.280029 
	C471.200562,634.889648 471.066498,626.491150 471.066498,618.095886 
	C471.499542,617.940125 471.932617,617.784363 472.365662,617.628601 
	C473.371277,618.772461 474.437378,619.869141 475.372955,621.067627 
	C483.134064,631.009521 490.755188,641.064941 498.731720,650.830261 
	C500.029938,652.419617 503.037109,653.680359 504.935303,653.335693 
	C506.193512,653.107178 507.664856,649.760498 507.700775,647.785278 
	C507.945923,634.313171 507.819153,620.834595 507.852478,607.358215 
	C507.860260,604.214172 506.533325,601.646057 503.346558,602.314148 
	C501.715393,602.656067 499.564697,605.521606 499.471313,607.340088 
	C499.045410,615.637512 499.282959,623.968201 499.238251,632.286682 
	C499.230133,633.801819 499.018158,635.315857 498.793762,638.198853 
	C494.850494,633.110779 491.834717,629.220398 488.819916,625.329224 
	C483.436279,618.380615 478.228943,611.282104 472.538605,604.594482 
	C471.221497,603.046570 468.236206,602.298218 466.055908,602.367065 
	C464.972534,602.401245 463.098511,605.105774 463.073334,606.626953 
	C462.839447,620.764709 462.805511,634.909729 463.020111,649.048035 
	C463.069824,652.322937 464.746796,654.942627 469.577057,652.867126 
M649.126892,590.213013 
	C655.114563,593.669128 661.620239,594.536255 668.388428,594.030151 
	C678.719727,593.257690 684.690979,588.314087 685.526733,578.047913 
	C686.347839,567.962097 685.966980,557.764221 685.742188,547.623718 
	C685.710327,546.186279 683.764648,543.945740 682.360840,543.636047 
	C681.103943,543.358887 679.309753,545.147705 677.882385,546.200745 
	C677.333679,546.605469 677.143372,547.496094 676.775085,548.192993 
	C666.297852,541.360779 657.493958,541.208923 651.178162,547.576233 
	C644.688782,554.118530 643.575134,564.013550 649.190369,571.668396 
	C651.221130,574.436768 654.566772,576.653625 657.777710,578.058716 
	C664.804016,581.133118 670.856140,577.661377 676.524597,573.376892 
	C678.288452,580.325500 675.434875,585.367676 669.469116,586.993591 
	C663.870422,588.519592 658.661133,587.376465 653.465881,585.159241 
	C652.152649,584.598816 649.890747,584.482666 648.996399,585.249329 
	C648.196655,585.934875 648.681152,588.118774 649.126892,590.213013 
M581.706177,622.976440 
	C584.924866,632.070312 588.005188,641.217651 591.484741,650.210571 
	C592.142212,651.909973 594.496399,654.192200 595.872070,654.066406 
	C597.664368,653.902466 599.646118,651.869202 600.834106,650.148682 
	C602.014771,648.438721 602.292725,646.112488 603.002197,644.068848 
	C604.755249,639.018677 606.528625,633.975525 608.711853,627.734802 
	C609.846436,630.022461 610.438354,630.955200 610.791626,631.970886 
	C612.870789,637.948364 614.681824,644.031799 617.063782,649.883850 
	C617.796692,651.684631 620.063049,654.056152 621.582825,654.024658 
	C623.297363,653.989075 625.358398,651.807495 626.540161,650.065125 
	C627.807434,648.196594 628.248291,645.760559 629.013062,643.559387 
	C631.633240,636.017517 634.254395,628.475769 636.838196,620.921387 
	C637.715088,618.357300 637.960510,615.788818 634.744141,614.737610 
	C631.374329,613.636292 630.440063,616.323425 629.514343,618.669556 
	C628.904968,620.213806 628.535217,621.850708 628.002808,623.427429 
	C626.124817,628.988464 624.222961,634.541443 622.330200,640.097534 
	C620.590027,638.797424 620.003601,637.526367 619.558777,636.207458 
	C617.749329,630.841980 616.276184,625.337097 614.065735,620.144653 
	C613.100281,617.876831 610.658020,616.237732 608.886475,614.313110 
	C607.155151,616.290527 604.714600,617.994446 603.826538,620.297119 
	C601.245667,626.988770 599.286987,633.920288 597.084229,640.757751 
	C595.297729,638.996094 594.666260,637.331665 594.109253,635.642700 
	C592.129333,629.638367 590.369019,623.549744 588.069397,617.671387 
	C587.517151,616.259583 585.213257,614.766785 583.701416,614.752563 
	C582.603699,614.742249 581.088806,616.956604 580.513245,618.466187 
	C580.132996,619.463623 581.087646,620.969971 581.706177,622.976440 
M689.686768,509.273651 
	C691.281799,508.135010 692.876831,506.996368 693.330139,506.672729 
	C696.207642,508.293671 698.486023,510.676758 700.570923,510.518036 
	C704.660950,510.206635 703.908264,506.286407 703.917603,503.379822 
	C703.960632,490.052979 703.929260,476.725891 703.949585,463.398956 
	C703.954346,460.272369 703.898621,456.738464 699.832458,456.757385 
	C695.964844,456.775421 695.436096,460.122803 695.464417,463.357910 
	C695.501343,467.573181 695.473450,471.789062 695.473450,477.011444 
	C693.377197,475.707794 692.437317,475.142883 691.516846,474.547791 
	C682.230774,468.544373 671.887939,471.045105 666.451233,480.612946 
	C662.372864,487.790405 663.418152,499.625000 668.655762,505.570587 
	C673.830933,511.445343 681.116333,512.923096 689.686768,509.273651 
M589.607727,552.807739 
	C586.550659,546.174683 583.732788,539.416504 580.351746,532.952881 
	C578.126221,528.698364 572.346069,528.781189 570.390869,533.032959 
	C563.801819,547.360657 557.369446,561.764160 551.209839,576.279846 
	C550.586365,577.749084 552.212585,580.172974 552.794861,582.153809 
	C554.608521,581.202454 557.773376,580.516235 558.020386,579.257446 
	C559.865662,569.854675 566.103333,568.465698 574.076782,569.553406 
	C575.383606,569.731628 576.765869,569.761780 578.061707,569.547852 
	C585.468689,568.325073 590.458252,570.559814 592.403931,578.440857 
	C592.997681,580.845825 594.817200,583.704651 598.276855,582.100891 
	C601.869812,580.435303 600.746155,577.558655 599.525146,574.857483 
	C596.309326,567.743164 593.086670,560.631958 589.607727,552.807739 
M679.989197,630.942017 
	C679.405884,629.221619 678.930359,627.455322 678.221558,625.788269 
	C673.893677,615.608704 661.656860,611.299072 650.853516,616.105286 
	C640.768860,620.591736 636.082947,632.650024 640.609131,642.467346 
	C644.891296,651.755493 654.756531,656.399597 665.178162,653.722168 
	C672.905640,651.736816 681.453491,644.175415 679.989197,630.942017 
M728.489075,638.862732 
	C731.879944,643.367859 735.059631,648.062073 738.807800,652.247192 
	C739.762756,653.313538 742.520813,652.764954 744.450439,652.958313 
	C744.502502,651.192688 745.270508,648.957886 744.476685,647.746582 
	C741.758850,643.599548 738.547058,639.767822 735.416992,635.902161 
	C733.282715,633.266174 732.381592,631.004944 735.739441,628.493408 
	C738.114563,626.716858 740.040833,624.351074 742.253113,622.342712 
	C744.347351,620.441589 746.429626,618.383423 743.879089,615.676392 
	C741.049255,612.672913 739.217773,615.615845 737.332092,617.346924 
	C732.036743,622.208130 726.757263,627.086609 720.736694,632.635498 
	C720.500610,628.878357 720.214050,626.258850 720.195557,623.637390 
	C720.150940,617.322449 720.233521,611.006653 720.261169,604.691162 
	C720.273804,601.797852 719.135071,599.811096 715.986511,599.691650 
	C712.447021,599.557495 712.019531,602.101807 712.011597,604.739502 
	C711.967590,619.373108 711.980042,634.006836 711.966675,648.640564 
	C711.963867,651.765808 713.454529,654.325623 716.536560,653.656921 
	C718.155579,653.305664 719.382507,650.340759 720.392822,648.355652 
	C720.847351,647.462646 720.216003,646.071472 720.289185,644.919739 
	C720.521362,641.264587 723.851685,638.452576 728.489075,638.862732 
M647.062134,508.620270 
	C648.055176,508.097656 649.048279,507.575043 650.041321,507.052429 
	C649.974304,507.472992 649.907227,507.893555 649.840210,508.314117 
	C651.854614,509.141388 654.504150,511.156921 655.727112,510.503326 
	C657.356201,509.632629 658.596497,506.732300 658.734009,504.621094 
	C659.122009,498.663849 659.015869,492.659332 658.819885,486.682800 
	C658.538757,478.112244 653.951538,472.507538 645.703735,471.872498 
	C640.695923,471.486969 635.494934,472.491119 630.522278,473.541229 
	C629.245544,473.810852 628.504700,476.618164 627.517639,478.259613 
	C629.199280,478.848602 630.893127,479.950684 632.559875,479.911194 
	C635.341370,479.845337 638.093079,478.732880 640.879517,478.623352 
	C647.570923,478.360321 650.939514,481.986938 649.984985,488.507660 
	C647.234436,488.039825 644.493652,487.229431 641.744324,487.199615 
	C638.800842,487.167725 635.776306,487.584534 632.916870,488.314087 
	C627.206665,489.770966 624.086182,493.844452 623.964355,499.378571 
	C623.847107,504.701233 627.113220,509.135712 632.556702,510.864685 
	C637.444885,512.417358 642.062073,511.600983 647.062134,508.620270 
M713.179382,576.142090 
	C705.083618,576.706177 700.403809,573.134766 700.221436,565.808167 
	C701.823486,565.729553 703.442078,565.589661 705.061401,565.581482 
	C711.212524,565.550476 717.364441,565.509827 723.514832,565.578857 
	C726.821777,565.615906 728.809998,564.051086 728.486328,560.835144 
	C727.828125,554.297180 725.275208,548.546326 719.306274,545.154724 
	C710.222290,539.993042 699.171814,543.254822 693.915161,552.386658 
	C688.391479,561.982361 691.388977,574.704895 700.436584,580.065552 
	C708.002869,584.548584 717.907227,584.131592 723.711426,578.713989 
	C724.833191,577.666931 724.803894,575.386780 725.305603,573.675415 
	C723.673889,573.587463 721.954102,573.133057 720.431274,573.498657 
	C718.218872,574.029846 716.148376,575.152649 713.179382,576.142090 
M524.163452,642.123169 
	C523.761230,640.670410 523.359070,639.217651 522.773193,637.101685 
	C530.952148,637.101685 538.248779,637.150574 545.544495,637.085022 
	C550.637878,637.039246 551.666809,635.846008 551.182739,630.734131 
	C550.512573,623.657715 546.802368,618.536377 540.440796,615.683044 
	C531.437805,611.645081 522.145203,615.017578 516.898315,623.812134 
	C511.810486,632.340088 513.743652,643.438110 521.455872,649.975647 
	C528.262878,655.745850 540.513306,655.949707 546.787048,650.078491 
	C547.879761,649.055908 547.733765,646.709656 548.159851,644.974792 
	C546.462769,644.968079 544.397766,644.325317 543.129028,645.059082 
	C535.566284,649.433289 529.371033,648.809998 524.163452,642.123169 
M722.016235,487.398468 
	C720.298401,483.075806 718.868896,478.600067 716.701111,474.516205 
	C715.974060,473.146515 713.365845,472.775391 711.617432,471.947845 
	C710.823425,473.710541 709.547546,475.430573 709.386414,477.249359 
	C709.255249,478.730316 710.406982,480.352356 711.079102,481.872375 
	C714.641541,489.928986 718.390015,497.908875 721.707947,506.064301 
	C722.599609,508.255951 723.277100,511.893890 722.138184,513.206238 
	C720.735962,514.821838 717.301819,514.605042 714.799561,515.358521 
	C713.053833,515.884155 711.398193,516.709412 709.702332,517.400818 
	C710.845520,519.000488 711.642578,521.360535 713.192688,522.066101 
	C719.350891,524.869019 726.058899,522.544067 729.129517,515.931641 
	C734.933594,503.433075 740.230957,490.691284 745.367615,477.901428 
	C745.964966,476.414154 744.799194,473.039398 743.429321,472.193024 
	C740.779724,470.555939 738.898743,472.555511 737.912598,475.285828 
	C736.274658,479.820160 734.557922,484.326447 732.834961,488.829498 
	C731.403137,492.571289 729.914673,496.291382 728.451294,500.021088 
	C728.032288,499.986145 727.613342,499.951202 727.194336,499.916229 
	C725.568970,495.979584 723.943542,492.042938 722.016235,487.398468 
M639.061829,581.291382 
	C639.477295,580.773621 640.267822,580.244690 640.252747,579.739807 
	C639.962280,570.017395 640.618774,560.107422 638.887085,550.637085 
	C637.463867,542.853943 627.191711,540.335571 619.985046,544.744873 
	C618.225647,545.821289 616.558472,547.048279 614.848938,548.206055 
	C614.969482,547.724426 615.089966,547.242737 615.210510,546.761108 
	C613.208252,545.640442 611.165894,543.534180 609.212402,543.613708 
	C605.639954,543.759033 605.989624,547.135681 605.990173,549.810425 
	C605.991943,558.804138 606.061462,567.798584 605.956787,576.791077 
	C605.921021,579.869141 606.753235,582.394165 610.076294,582.431519 
	C613.548462,582.470459 614.127319,579.691223 614.117920,576.768188 
	C614.099609,571.106812 613.886536,565.426453 614.266479,559.788513 
	C614.684021,553.593323 618.926147,549.672852 624.068726,550.038635 
	C629.077942,550.394958 632.313171,554.425903 632.369995,560.546326 
	C632.422546,566.208313 632.211548,571.876648 632.407837,577.532043 
	C632.539795,581.334229 634.174438,583.684692 639.061829,581.291382 
M585.950562,489.499329 
	C585.957520,494.822815 585.935608,500.146545 585.982056,505.469696 
	C586.011353,508.822540 587.579956,510.828064 591.118591,510.836670 
	C599.769165,510.857758 608.428833,511.053864 617.062561,510.673676 
	C618.745239,510.599548 620.327209,508.237396 621.955627,506.930603 
	C620.310059,505.690216 618.736023,503.511414 617.006042,503.379730 
	C611.050903,502.926331 605.034302,503.010284 599.055115,503.245178 
	C595.501526,503.384796 594.506470,502.088348 594.564941,498.648193 
	C594.751404,487.671631 594.637634,476.689941 594.638123,465.710236 
	C594.638306,462.533325 594.192505,459.153442 590.318176,459.053162 
	C586.298218,458.949066 585.941467,462.375214 585.940735,465.542145 
	C585.938904,473.194641 585.946594,480.847168 585.950562,489.499329 
M559.060913,639.421631 
	C558.974548,651.347656 564.028015,656.437683 573.666931,653.760376 
	C575.275940,653.313416 576.406799,651.145081 577.758606,649.772156 
	C576.262451,648.801880 574.725586,646.954346 573.277649,647.021667 
	C568.438293,647.246643 567.161377,644.603760 567.086670,640.611450 
	C567.015015,636.781982 567.054688,632.950134 567.070557,629.119385 
	C567.098938,622.277283 567.126465,622.447327 573.798035,621.675171 
	C575.267334,621.505188 576.542542,619.658264 577.907166,618.583557 
	C576.637573,617.392944 575.431641,616.119873 574.060181,615.061096 
	C573.639771,614.736572 572.753906,614.914368 572.101807,615.007324 
	C568.244080,615.556824 566.399475,614.126404 567.073120,610.063171 
	C567.180481,609.415771 567.353027,608.497803 567.021545,608.109192 
	C565.778137,606.651611 564.338318,605.361694 562.972107,604.008911 
	C561.668457,605.385254 559.778503,606.558899 559.214294,608.190857 
	C558.557495,610.090698 559.061096,612.391724 559.061096,614.518677 
	C558.661316,614.297302 558.261536,614.075928 557.861755,613.854553 
	C556.422180,615.328308 553.683350,616.979858 553.854858,618.233032 
	C554.097595,620.006226 556.488647,621.485413 557.961426,623.090332 
	C558.328308,622.906677 558.695190,622.723022 559.062073,622.539429 
	C559.062073,627.841614 559.062073,633.143799 559.060913,639.421631 
M685.861145,630.508240 
	C685.812866,636.668213 685.786438,642.828430 685.706848,648.987976 
	C685.668884,651.932739 686.787659,653.898560 689.964966,653.885986 
	C692.927979,653.874268 693.948181,652.042786 693.887451,649.265137 
	C693.811096,645.769531 693.865784,642.270752 693.888611,638.773438 
	C693.948975,629.537109 696.404358,625.973633 704.784790,622.321777 
	C706.107971,621.745178 707.575928,620.431702 707.980835,619.145447 
	C708.322083,618.061401 707.518066,615.655884 706.687256,615.366333 
	C705.021362,614.785522 702.634155,614.615784 701.190552,615.426575 
	C698.755554,616.793823 696.823242,619.056396 694.499451,621.100830 
	C694.211853,620.180603 694.188354,619.611755 693.899109,619.264221 
	C692.541931,617.633850 691.111572,616.064331 689.707397,614.473083 
	C688.424133,616.322632 686.442627,618.027283 686.021606,620.055786 
	C685.391907,623.089172 685.859985,626.350342 685.861145,630.508240 
z"/>
<path fill="#FB7C06" opacity="1.000000" stroke="none" 
	d="
M441.091705,520.908020 
	C444.874084,524.696106 448.325409,528.320435 451.968628,531.740356 
	C454.139221,533.777893 454.266449,535.348083 452.077515,537.517578 
	C435.647339,553.801392 419.266907,570.135864 402.929443,586.512817 
	C388.475433,601.001831 374.099274,615.568542 359.682617,630.094849 
	C356.987915,632.810059 354.234955,635.467957 351.562439,638.204529 
	C348.959259,640.869995 347.095306,639.027771 345.276093,637.214233 
	C335.136475,627.106628 325.020233,616.975525 314.897308,606.851196 
	C294.182159,586.133057 273.446869,565.434998 252.758224,544.690491 
	C224.431549,516.287292 196.154053,487.835083 167.827957,459.431274 
	C155.835785,447.406189 143.861664,435.360321 131.684891,423.523926 
	C128.414307,420.344696 128.377716,418.373871 131.735855,415.131256 
	C142.872391,404.377838 153.769043,393.369446 164.538193,382.246338 
	C167.550415,379.135101 169.191513,380.699585 171.398376,382.912842 
	C190.103043,401.671997 208.867340,420.371674 227.594589,439.108337 
	C266.463318,477.996582 305.352661,516.864380 344.124512,555.848999 
	C347.459076,559.201843 349.834991,560.084473 353.412476,556.240234 
	C359.309540,549.903564 365.539551,543.870117 371.757416,537.841064 
	C375.148193,534.553284 372.615204,532.677979 370.441925,530.506348 
	C339.084839,499.173248 307.741943,467.825958 276.396332,436.481415 
	C250.117310,410.203247 223.837479,383.925903 197.566757,357.639435 
	C196.409042,356.481049 195.338394,355.235626 193.759445,353.523499 
	C197.702057,349.472290 201.449615,345.532379 205.292053,341.687286 
	C235.542450,311.415955 265.850861,281.202362 296.010376,250.840805 
	C298.929138,247.902512 300.487579,248.365540 303.164246,251.048126 
	C360.710510,308.722443 418.341370,366.312347 475.965057,423.909393 
	C480.790222,428.732330 480.817719,428.699097 485.728912,423.770416 
	C491.487854,417.990936 497.163300,412.124023 503.054718,406.482758 
	C505.730133,403.920898 505.641418,402.136780 503.003784,399.522644 
	C483.600220,380.291840 464.324280,360.932220 445.010559,341.610779 
	C424.880646,321.472809 404.756805,301.328796 384.624023,281.193695 
	C366.148468,262.715973 347.722473,244.187988 329.128906,225.829712 
	C325.930359,222.671600 325.899445,220.815659 329.203644,217.541580 
	C362.325928,184.720978 395.268005,151.718506 428.252228,118.758629 
	C435.786774,111.229637 443.282928,103.662216 450.809326,96.125031 
	C452.488983,94.443001 454.113770,92.579277 456.640350,95.068504 
	C469.190308,107.432869 481.772064,119.764969 495.133667,132.885193 
	C487.448303,140.315918 480.605774,147.297668 473.339478,153.806427 
	C469.580719,157.173309 469.503448,159.360901 473.167084,162.919983 
	C485.824066,175.215698 498.227509,187.774979 510.593262,200.365707 
	C513.111938,202.930206 514.819641,203.305649 517.471924,200.505264 
	C523.421692,194.223343 529.778503,188.327744 535.755676,182.070572 
	C538.483826,179.214691 540.562439,178.797089 543.523132,181.800659 
	C554.505249,192.941772 565.635742,203.937195 576.765320,214.931778 
	C579.325317,217.460739 579.179993,219.361130 576.512207,221.884583 
	C570.220703,227.835831 564.315063,234.193588 558.065613,240.191254 
	C555.014221,243.119690 555.446411,245.248291 558.283203,248.057465 
	C574.135864,263.755615 589.904907,279.539307 605.574524,295.420105 
	C608.623230,298.509918 610.823120,299.162689 614.064026,295.559723 
	C620.623718,288.267242 627.569641,281.322174 634.364075,274.225800 
	C648.096252,288.171997 661.059692,301.337463 674.521118,315.008636 
	C669.421875,320.142517 663.732422,325.902954 658.007568,331.627960 
	C643.404785,346.231079 628.691467,360.725647 614.244690,375.481262 
	C610.891907,378.905701 608.807556,378.881470 605.449219,375.504059 
	C570.252686,340.107880 534.906738,304.860229 499.629150,269.544556 
	C477.291809,247.183075 454.982513,224.793457 432.710510,202.366928 
	C430.019623,199.657333 427.888031,198.953857 424.921875,202.212738 
	C420.218140,207.380798 415.119995,212.192139 410.147614,217.112869 
	C405.740875,221.473801 405.679291,222.264053 410.148499,226.729507 
	C424.051849,240.621323 438.007538,254.460754 451.902252,268.361176 
	C495.706238,312.183197 539.492676,356.022766 583.277344,399.864136 
	C584.187195,400.775208 584.993042,401.790192 585.900269,402.816406 
	C550.604004,437.983643 515.534668,472.924774 479.451874,508.875702 
	C473.531311,502.636597 467.501617,496.040009 461.212769,489.700500 
	C442.088043,470.421722 422.804230,451.300415 403.737030,431.965240 
	C400.638580,428.823273 398.639313,428.204956 395.363068,431.787292 
	C389.636292,438.049225 383.533661,443.987732 377.328461,449.783356 
	C374.190430,452.714294 374.646149,454.583221 377.515778,457.425385 
	C398.709839,478.416656 419.751678,499.561646 441.091705,520.908020 
M351.940857,380.571808 
	C335.702576,364.342987 319.377014,348.199860 303.299988,331.812836 
	C300.097382,328.548462 298.226471,328.881561 295.331451,331.990356 
	C289.671539,338.068176 283.769623,343.936005 277.726990,349.635376 
	C274.827789,352.369843 274.422821,354.155487 277.532715,357.231354 
	C295.381653,374.885071 313.049255,392.722992 330.672180,410.603149 
	C332.901093,412.864655 334.373199,412.635010 336.404388,410.565735 
	C341.755707,405.114105 347.268372,399.821167 352.640198,394.389343 
	C359.920929,387.027252 359.609406,388.302734 351.940857,380.571808 
z"/>
<path fill="#88888C" opacity="1.000000" stroke="none" 
	d="
M469.246521,653.105896 
	C464.746796,654.942627 463.069824,652.322937 463.020111,649.048035 
	C462.805511,634.909729 462.839447,620.764709 463.073334,606.626953 
	C463.098511,605.105774 464.972534,602.401245 466.055908,602.367065 
	C468.236206,602.298218 471.221497,603.046570 472.538605,604.594482 
	C478.228943,611.282104 483.436279,618.380615 488.819916,625.329224 
	C491.834717,629.220398 494.850494,633.110779 498.793762,638.198853 
	C499.018158,635.315857 499.230133,633.801819 499.238251,632.286682 
	C499.282959,623.968201 499.045410,615.637512 499.471313,607.340088 
	C499.564697,605.521606 501.715393,602.656067 503.346558,602.314148 
	C506.533325,601.646057 507.860260,604.214172 507.852478,607.358215 
	C507.819153,620.834595 507.945923,634.313171 507.700775,647.785278 
	C507.664856,649.760498 506.193512,653.107178 504.935303,653.335693 
	C503.037109,653.680359 500.029938,652.419617 498.731720,650.830261 
	C490.755188,641.064941 483.134064,631.009521 475.372955,621.067627 
	C474.437378,619.869141 473.371277,618.772461 472.365662,617.628601 
	C471.932617,617.784363 471.499542,617.940125 471.066498,618.095886 
	C471.066498,626.491150 471.200562,634.889648 470.998260,643.280029 
	C470.921021,646.485291 470.073547,649.671997 469.246521,653.105896 
z"/>
<path fill="#88878A" opacity="1.000000" stroke="none" 
	d="
M648.862915,589.927246 
	C648.681152,588.118774 648.196655,585.934875 648.996399,585.249329 
	C649.890747,584.482666 652.152649,584.598816 653.465881,585.159241 
	C658.661133,587.376465 663.870422,588.519592 669.469116,586.993591 
	C675.434875,585.367676 678.288452,580.325500 676.524597,573.376892 
	C670.856140,577.661377 664.804016,581.133118 657.777710,578.058716 
	C654.566772,576.653625 651.221130,574.436768 649.190369,571.668396 
	C643.575134,564.013550 644.688782,554.118530 651.178162,547.576233 
	C657.493958,541.208923 666.297852,541.360779 676.775085,548.192993 
	C677.143372,547.496094 677.333679,546.605469 677.882385,546.200745 
	C679.309753,545.147705 681.103943,543.358887 682.360840,543.636047 
	C683.764648,543.945740 685.710327,546.186279 685.742188,547.623718 
	C685.966980,557.764221 686.347839,567.962097 685.526733,578.047913 
	C684.690979,588.314087 678.719727,593.257690 668.388428,594.030151 
	C661.620239,594.536255 655.114563,593.669128 648.862915,589.927246 
M660.920044,551.082581 
	C655.673584,554.352661 653.790955,558.335388 655.042847,563.515930 
	C656.147156,568.085876 660.349243,571.474915 665.230408,571.732300 
	C670.065002,571.987244 675.492920,568.878845 676.245972,564.144287 
	C676.764160,560.886108 676.131042,556.627014 674.305664,554.002258 
	C671.443604,549.886719 666.574463,549.184509 660.920044,551.082581 
z"/>
<path fill="#88888B" opacity="1.000000" stroke="none" 
	d="
M581.575439,622.612427 
	C581.087646,620.969971 580.132996,619.463623 580.513245,618.466187 
	C581.088806,616.956604 582.603699,614.742249 583.701416,614.752563 
	C585.213257,614.766785 587.517151,616.259583 588.069397,617.671387 
	C590.369019,623.549744 592.129333,629.638367 594.109253,635.642700 
	C594.666260,637.331665 595.297729,638.996094 597.084229,640.757751 
	C599.286987,633.920288 601.245667,626.988770 603.826538,620.297119 
	C604.714600,617.994446 607.155151,616.290527 608.886475,614.313110 
	C610.658020,616.237732 613.100281,617.876831 614.065735,620.144653 
	C616.276184,625.337097 617.749329,630.841980 619.558777,636.207458 
	C620.003601,637.526367 620.590027,638.797424 622.330200,640.097534 
	C624.222961,634.541443 626.124817,628.988464 628.002808,623.427429 
	C628.535217,621.850708 628.904968,620.213806 629.514343,618.669556 
	C630.440063,616.323425 631.374329,613.636292 634.744141,614.737610 
	C637.960510,615.788818 637.715088,618.357300 636.838196,620.921387 
	C634.254395,628.475769 631.633240,636.017517 629.013062,643.559387 
	C628.248291,645.760559 627.807434,648.196594 626.540161,650.065125 
	C625.358398,651.807495 623.297363,653.989075 621.582825,654.024658 
	C620.063049,654.056152 617.796692,651.684631 617.063782,649.883850 
	C614.681824,644.031799 612.870789,637.948364 610.791626,631.970886 
	C610.438354,630.955200 609.846436,630.022461 608.711853,627.734802 
	C606.528625,633.975525 604.755249,639.018677 603.002197,644.068848 
	C602.292725,646.112488 602.014771,648.438721 600.834106,650.148682 
	C599.646118,651.869202 597.664368,653.902466 595.872070,654.066406 
	C594.496399,654.192200 592.142212,651.909973 591.484741,650.210571 
	C588.005188,641.217651 584.924866,632.070312 581.575439,622.612427 
z"/>
<path fill="#88878A" opacity="1.000000" stroke="none" 
	d="
M689.371887,509.491211 
	C681.116333,512.923096 673.830933,511.445343 668.655762,505.570587 
	C663.418152,499.625000 662.372864,487.790405 666.451233,480.612946 
	C671.887939,471.045105 682.230774,468.544373 691.516846,474.547791 
	C692.437317,475.142883 693.377197,475.707794 695.473450,477.011444 
	C695.473450,471.789062 695.501343,467.573181 695.464417,463.357910 
	C695.436096,460.122803 695.964844,456.775421 699.832458,456.757385 
	C703.898621,456.738464 703.954346,460.272369 703.949585,463.398956 
	C703.929260,476.725891 703.960632,490.052979 703.917603,503.379822 
	C703.908264,506.286407 704.660950,510.206635 700.570923,510.518036 
	C698.486023,510.676758 696.207642,508.293671 693.330139,506.672729 
	C692.876831,506.996368 691.281799,508.135010 689.371887,509.491211 
M673.026428,493.997253 
	C673.249573,494.792694 673.393433,495.621094 673.708252,496.378418 
	C676.363586,502.766022 682.524109,505.612122 688.098938,503.056915 
	C694.375244,500.180145 696.990173,492.467926 694.001099,485.649567 
	C691.427063,479.777924 684.807922,477.183777 679.072449,480.131256 
	C673.832336,482.824158 672.519836,487.661377 673.026428,493.997253 
z"/>
<path fill="#868589" opacity="1.000000" stroke="none" 
	d="
M589.737183,553.163574 
	C593.086670,560.631958 596.309326,567.743164 599.525146,574.857483 
	C600.746155,577.558655 601.869812,580.435303 598.276855,582.100891 
	C594.817200,583.704651 592.997681,580.845825 592.403931,578.440857 
	C590.458252,570.559814 585.468689,568.325073 578.061707,569.547852 
	C576.765869,569.761780 575.383606,569.731628 574.076782,569.553406 
	C566.103333,568.465698 559.865662,569.854675 558.020386,579.257446 
	C557.773376,580.516235 554.608521,581.202454 552.794861,582.153809 
	C552.212585,580.172974 550.586365,577.749084 551.209839,576.279846 
	C557.369446,561.764160 563.801819,547.360657 570.390869,533.032959 
	C572.346069,528.781189 578.126221,528.698364 580.351746,532.952881 
	C583.732788,539.416504 586.550659,546.174683 589.737183,553.163574 
M568.094238,557.736816 
	C567.718872,558.897156 567.343567,560.057495 566.873352,561.511108 
	C572.818115,561.511108 578.162537,561.511108 584.454956,561.511108 
	C581.465576,554.757996 578.762085,548.650757 576.058533,542.543457 
	C575.595032,542.585022 575.131470,542.626526 574.667908,542.668030 
	C572.589539,547.455017 570.511169,552.242065 568.094238,557.736816 
z"/>
<path fill="#88878C" opacity="1.000000" stroke="none" 
	d="
M680.012573,631.378784 
	C681.453491,644.175415 672.905640,651.736816 665.178162,653.722168 
	C654.756531,656.399597 644.891296,651.755493 640.609131,642.467346 
	C636.082947,632.650024 640.768860,620.591736 650.853516,616.105286 
	C661.656860,611.299072 673.893677,615.608704 678.221558,625.788269 
	C678.930359,627.455322 679.405884,629.221619 680.012573,631.378784 
M653.024170,644.648987 
	C653.608215,644.967957 654.170898,645.336792 654.779724,645.597900 
	C659.570496,647.652710 664.741699,646.833984 668.052551,643.203735 
	C671.808960,639.085083 672.213562,634.036682 670.317139,629.168579 
	C668.512146,624.535095 664.779663,621.877319 659.455017,621.864746 
	C654.351624,621.852783 650.695557,624.166626 648.915466,628.763184 
	C646.685547,634.521118 647.476135,639.896179 653.024170,644.648987 
z"/>
<path fill="#88878A" opacity="1.000000" stroke="none" 
	d="
M728.217041,638.608032 
	C723.851685,638.452576 720.521362,641.264587 720.289185,644.919739 
	C720.216003,646.071472 720.847351,647.462646 720.392822,648.355652 
	C719.382507,650.340759 718.155579,653.305664 716.536560,653.656921 
	C713.454529,654.325623 711.963867,651.765808 711.966675,648.640564 
	C711.980042,634.006836 711.967590,619.373108 712.011597,604.739502 
	C712.019531,602.101807 712.447021,599.557495 715.986511,599.691650 
	C719.135071,599.811096 720.273804,601.797852 720.261169,604.691162 
	C720.233521,611.006653 720.150940,617.322449 720.195557,623.637390 
	C720.214050,626.258850 720.500610,628.878357 720.736694,632.635498 
	C726.757263,627.086609 732.036743,622.208130 737.332092,617.346924 
	C739.217773,615.615845 741.049255,612.672913 743.879089,615.676392 
	C746.429626,618.383423 744.347351,620.441589 742.253113,622.342712 
	C740.040833,624.351074 738.114563,626.716858 735.739441,628.493408 
	C732.381592,631.004944 733.282715,633.266174 735.416992,635.902161 
	C738.547058,639.767822 741.758850,643.599548 744.476685,647.746582 
	C745.270508,648.957886 744.502502,651.192688 744.450439,652.958313 
	C742.520813,652.764954 739.762756,653.313538 738.807800,652.247192 
	C735.059631,648.062073 731.879944,643.367859 728.217041,638.608032 
z"/>
<path fill="#89888B" opacity="1.000000" stroke="none" 
	d="
M646.739380,508.811646 
	C642.062073,511.600983 637.444885,512.417358 632.556702,510.864685 
	C627.113220,509.135712 623.847107,504.701233 623.964355,499.378571 
	C624.086182,493.844452 627.206665,489.770966 632.916870,488.314087 
	C635.776306,487.584534 638.800842,487.167725 641.744324,487.199615 
	C644.493652,487.229431 647.234436,488.039825 649.984985,488.507660 
	C650.939514,481.986938 647.570923,478.360321 640.879517,478.623352 
	C638.093079,478.732880 635.341370,479.845337 632.559875,479.911194 
	C630.893127,479.950684 629.199280,478.848602 627.517639,478.259613 
	C628.504700,476.618164 629.245544,473.810852 630.522278,473.541229 
	C635.494934,472.491119 640.695923,471.486969 645.703735,471.872498 
	C653.951538,472.507538 658.538757,478.112244 658.819885,486.682800 
	C659.015869,492.659332 659.122009,498.663849 658.734009,504.621094 
	C658.596497,506.732300 657.356201,509.632629 655.727112,510.503326 
	C654.504150,511.156921 651.854614,509.141388 649.840210,508.314117 
	C649.907227,507.893555 649.974304,507.472992 650.041321,507.052429 
	C649.048279,507.575043 648.055176,508.097656 646.739380,508.811646 
M632.846313,497.807831 
	C632.988037,503.319366 635.221008,505.323761 640.974243,505.103668 
	C646.479980,504.893066 651.100891,500.818176 650.659302,496.412872 
	C650.576294,495.585052 649.949036,494.535645 649.252197,494.090393 
	C644.775085,491.229645 636.460083,492.789093 632.846313,497.807831 
z"/>
<path fill="#878788" opacity="1.000000" stroke="none" 
	d="
M713.598389,576.082642 
	C716.148376,575.152649 718.218872,574.029846 720.431274,573.498657 
	C721.954102,573.133057 723.673889,573.587463 725.305603,573.675415 
	C724.803894,575.386780 724.833191,577.666931 723.711426,578.713989 
	C717.907227,584.131592 708.002869,584.548584 700.436584,580.065552 
	C691.388977,574.704895 688.391479,561.982361 693.915161,552.386658 
	C699.171814,543.254822 710.222290,539.993042 719.306274,545.154724 
	C725.275208,548.546326 727.828125,554.297180 728.486328,560.835144 
	C728.809998,564.051086 726.821777,565.615906 723.514832,565.578857 
	C717.364441,565.509827 711.212524,565.550476 705.061401,565.581482 
	C703.442078,565.589661 701.823486,565.729553 700.221436,565.808167 
	C700.403809,573.134766 705.083618,576.706177 713.598389,576.082642 
M704.521729,551.765015 
	C702.854919,554.152344 701.188049,556.539673 699.056030,559.593140 
	C706.909729,559.593140 713.221985,559.593140 719.607544,559.593140 
	C717.724915,550.930481 712.929260,548.296570 704.521729,551.765015 
z"/>
<path fill="#88888B" opacity="1.000000" stroke="none" 
	d="
M524.352905,642.458130 
	C529.371033,648.809998 535.566284,649.433289 543.129028,645.059082 
	C544.397766,644.325317 546.462769,644.968079 548.159851,644.974792 
	C547.733765,646.709656 547.879761,649.055908 546.787048,650.078491 
	C540.513306,655.949707 528.262878,655.745850 521.455872,649.975647 
	C513.743652,643.438110 511.810486,632.340088 516.898315,623.812134 
	C522.145203,615.017578 531.437805,611.645081 540.440796,615.683044 
	C546.802368,618.536377 550.512573,623.657715 551.182739,630.734131 
	C551.666809,635.846008 550.637878,637.039246 545.544495,637.085022 
	C538.248779,637.150574 530.952148,637.101685 522.773193,637.101685 
	C523.359070,639.217651 523.761230,640.670410 524.352905,642.458130 
M523.333008,628.958435 
	C523.817505,629.837402 524.279053,631.465271 524.789978,631.480957 
	C530.653015,631.660645 536.523560,631.595398 542.685242,631.595398 
	C542.251099,625.699158 539.553284,622.497559 534.794128,621.264954 
	C530.350952,620.114197 526.685120,622.575928 523.333008,628.958435 
z"/>
<path fill="#89898B" opacity="1.000000" stroke="none" 
	d="
M722.167175,487.752380 
	C723.943542,492.042938 725.568970,495.979584 727.194336,499.916229 
	C727.613342,499.951202 728.032288,499.986145 728.451294,500.021088 
	C729.914673,496.291382 731.403137,492.571289 732.834961,488.829498 
	C734.557922,484.326447 736.274658,479.820160 737.912598,475.285828 
	C738.898743,472.555511 740.779724,470.555939 743.429321,472.193024 
	C744.799194,473.039398 745.964966,476.414154 745.367615,477.901428 
	C740.230957,490.691284 734.933594,503.433075 729.129517,515.931641 
	C726.058899,522.544067 719.350891,524.869019 713.192688,522.066101 
	C711.642578,521.360535 710.845520,519.000488 709.702332,517.400818 
	C711.398193,516.709412 713.053833,515.884155 714.799561,515.358521 
	C717.301819,514.605042 720.735962,514.821838 722.138184,513.206238 
	C723.277100,511.893890 722.599609,508.255951 721.707947,506.064301 
	C718.390015,497.908875 714.641541,489.928986 711.079102,481.872375 
	C710.406982,480.352356 709.255249,478.730316 709.386414,477.249359 
	C709.547546,475.430573 710.823425,473.710541 711.617432,471.947845 
	C713.365845,472.775391 715.974060,473.146515 716.701111,474.516205 
	C718.868896,478.600067 720.298401,483.075806 722.167175,487.752380 
z"/>
<path fill="#888889" opacity="1.000000" stroke="none" 
	d="
M638.790283,581.552368 
	C634.174438,583.684692 632.539795,581.334229 632.407837,577.532043 
	C632.211548,571.876648 632.422546,566.208313 632.369995,560.546326 
	C632.313171,554.425903 629.077942,550.394958 624.068726,550.038635 
	C618.926147,549.672852 614.684021,553.593323 614.266479,559.788513 
	C613.886536,565.426453 614.099609,571.106812 614.117920,576.768188 
	C614.127319,579.691223 613.548462,582.470459 610.076294,582.431519 
	C606.753235,582.394165 605.921021,579.869141 605.956787,576.791077 
	C606.061462,567.798584 605.991943,558.804138 605.990173,549.810425 
	C605.989624,547.135681 605.639954,543.759033 609.212402,543.613708 
	C611.165894,543.534180 613.208252,545.640442 615.210510,546.761108 
	C615.089966,547.242737 614.969482,547.724426 614.848938,548.206055 
	C616.558472,547.048279 618.225647,545.821289 619.985046,544.744873 
	C627.191711,540.335571 637.463867,542.853943 638.887085,550.637085 
	C640.618774,560.107422 639.962280,570.017395 640.252747,579.739807 
	C640.267822,580.244690 639.477295,580.773621 638.790283,581.552368 
z"/>
<path fill="#868688" opacity="1.000000" stroke="none" 
	d="
M585.950562,488.999512 
	C585.946594,480.847168 585.938904,473.194641 585.940735,465.542145 
	C585.941467,462.375214 586.298218,458.949066 590.318176,459.053162 
	C594.192505,459.153442 594.638306,462.533325 594.638123,465.710236 
	C594.637634,476.689941 594.751404,487.671631 594.564941,498.648193 
	C594.506470,502.088348 595.501526,503.384796 599.055115,503.245178 
	C605.034302,503.010284 611.050903,502.926331 617.006042,503.379730 
	C618.736023,503.511414 620.310059,505.690216 621.955627,506.930603 
	C620.327209,508.237396 618.745239,510.599548 617.062561,510.673676 
	C608.428833,511.053864 599.769165,510.857758 591.118591,510.836670 
	C587.579956,510.828064 586.011353,508.822540 585.982056,505.469696 
	C585.935608,500.146545 585.957520,494.822815 585.950562,488.999512 
z"/>
<path fill="#88878A" opacity="1.000000" stroke="none" 
	d="
M559.061523,638.933838 
	C559.062073,633.143799 559.062073,627.841614 559.062073,622.539429 
	C558.695190,622.723022 558.328308,622.906677 557.961426,623.090332 
	C556.488647,621.485413 554.097595,620.006226 553.854858,618.233032 
	C553.683350,616.979858 556.422180,615.328308 557.861755,613.854553 
	C558.261536,614.075928 558.661316,614.297302 559.061096,614.518677 
	C559.061096,612.391724 558.557495,610.090698 559.214294,608.190857 
	C559.778503,606.558899 561.668457,605.385254 562.972107,604.008911 
	C564.338318,605.361694 565.778137,606.651611 567.021545,608.109192 
	C567.353027,608.497803 567.180481,609.415771 567.073120,610.063171 
	C566.399475,614.126404 568.244080,615.556824 572.101807,615.007324 
	C572.753906,614.914368 573.639771,614.736572 574.060181,615.061096 
	C575.431641,616.119873 576.637573,617.392944 577.907166,618.583557 
	C576.542542,619.658264 575.267334,621.505188 573.798035,621.675171 
	C567.126465,622.447327 567.098938,622.277283 567.070557,629.119385 
	C567.054688,632.950134 567.015015,636.781982 567.086670,640.611450 
	C567.161377,644.603760 568.438293,647.246643 573.277649,647.021667 
	C574.725586,646.954346 576.262451,648.801880 577.758667,649.772217 
	C576.406799,651.145081 575.275940,653.313416 573.666931,653.760376 
	C564.028015,656.437683 558.974548,651.347656 559.061523,638.933838 
z"/>
<path fill="#88888B" opacity="1.000000" stroke="none" 
	d="
M685.861206,630.011475 
	C685.859985,626.350342 685.391907,623.089172 686.021606,620.055786 
	C686.442627,618.027283 688.424133,616.322632 689.707397,614.473083 
	C691.111572,616.064331 692.541931,617.633850 693.899109,619.264221 
	C694.188354,619.611755 694.211853,620.180603 694.499451,621.100830 
	C696.823242,619.056396 698.755554,616.793823 701.190552,615.426575 
	C702.634155,614.615784 705.021362,614.785522 706.687256,615.366333 
	C707.518066,615.655884 708.322083,618.061401 707.980835,619.145447 
	C707.575928,620.431702 706.107971,621.745178 704.784790,622.321777 
	C696.404358,625.973633 693.948975,629.537109 693.888611,638.773438 
	C693.865784,642.270752 693.811096,645.769531 693.887451,649.265137 
	C693.948181,652.042786 692.927979,653.874268 689.964966,653.885986 
	C686.787659,653.898560 685.668884,651.932739 685.706848,648.987976 
	C685.786438,642.828430 685.812866,636.668213 685.861206,630.011475 
z"/>
<path fill="#FDFAF4" opacity="1.000000" stroke="none" 
	d="
M352.199310,380.816437 
	C359.609406,388.302734 359.920929,387.027252 352.640198,394.389343 
	C347.268372,399.821167 341.755707,405.114105 336.404388,410.565735 
	C334.373199,412.635010 332.901093,412.864655 330.672180,410.603149 
	C313.049255,392.722992 295.381653,374.885071 277.532715,357.231354 
	C274.422821,354.155487 274.827789,352.369843 277.726990,349.635376 
	C283.769623,343.936005 289.671539,338.068176 295.331451,331.990356 
	C298.226471,328.881561 300.097382,328.548462 303.299988,331.812836 
	C319.377014,348.199860 335.702576,364.342987 352.199310,380.816437 
z"/>
<path fill="#F8F8F9" opacity="1.000000" stroke="none" 
	d="
M661.292542,550.956909 
	C666.574463,549.184509 671.443604,549.886719 674.305664,554.002258 
	C676.131042,556.627014 676.764160,560.886108 676.245972,564.144287 
	C675.492920,568.878845 670.065002,571.987244 665.230408,571.732300 
	C660.349243,571.474915 656.147156,568.085876 655.042847,563.515930 
	C653.790955,558.335388 655.673584,554.352661 661.292542,550.956909 
z"/>
<path fill="#FAFAFA" opacity="1.000000" stroke="none" 
	d="
M672.972290,493.581726 
	C672.519836,487.661377 673.832336,482.824158 679.072449,480.131256 
	C684.807922,477.183777 691.427063,479.777924 694.001099,485.649567 
	C696.990173,492.467926 694.375244,500.180145 688.098938,503.056915 
	C682.524109,505.612122 676.363586,502.766022 673.708252,496.378418 
	C673.393433,495.621094 673.249573,494.792694 672.972290,493.581726 
z"/>
<path fill="#F3F3F4" opacity="1.000000" stroke="none" 
	d="
M568.263550,557.382935 
	C570.511169,552.242065 572.589539,547.455017 574.667908,542.668030 
	C575.131470,542.626526 575.595032,542.585022 576.058533,542.543457 
	C578.762085,548.650757 581.465576,554.757996 584.454956,561.511108 
	C578.162537,561.511108 572.818115,561.511108 566.873352,561.511108 
	C567.343567,560.057495 567.718872,558.897156 568.263550,557.382935 
z"/>
<path fill="#FAF9FB" opacity="1.000000" stroke="none" 
	d="
M652.732849,644.403931 
	C647.476135,639.896179 646.685547,634.521118 648.915466,628.763184 
	C650.695557,624.166626 654.351624,621.852783 659.455017,621.864746 
	C664.779663,621.877319 668.512146,624.535095 670.317139,629.168579 
	C672.213562,634.036682 671.808960,639.085083 668.052551,643.203735 
	C664.741699,646.833984 659.570496,647.652710 654.779724,645.597900 
	C654.170898,645.336792 653.608215,644.967957 652.732849,644.403931 
z"/>
<path fill="#F6F6F8" opacity="1.000000" stroke="none" 
	d="
M632.947510,497.407898 
	C636.460083,492.789093 644.775085,491.229645 649.252197,494.090393 
	C649.949036,494.535645 650.576294,495.585052 650.659302,496.412872 
	C651.100891,500.818176 646.479980,504.893066 640.974243,505.103668 
	C635.221008,505.323761 632.988037,503.319366 632.947510,497.407898 
z"/>
<path fill="#F8F8F9" opacity="1.000000" stroke="none" 
	d="
M704.828003,551.524658 
	C712.929260,548.296570 717.724915,550.930481 719.607544,559.593140 
	C713.221985,559.593140 706.909729,559.593140 699.056030,559.593140 
	C701.188049,556.539673 702.854919,554.152344 704.828003,551.524658 
z"/>
<path fill="#F0F0F2" opacity="1.000000" stroke="none" 
	d="
M523.455139,628.595459 
	C526.685120,622.575928 530.350952,620.114197 534.794128,621.264954 
	C539.553284,622.497559 542.251099,625.699158 542.685242,631.595398 
	C536.523560,631.595398 530.653015,631.660645 524.789978,631.480957 
	C524.279053,631.465271 523.817505,629.837402 523.455139,628.595459 
z"/>
</svg>